REM DIRINDEX 1\2\4\8,1\2\4\9,1\2\4\10,1\2\5\11,1\2\5\12,1\2\5\13,1\2\5\14,1\2\5\15,1\3\6\16,1\3\6\17,1\3\6\18,1\3\7\19,1\3\7\20,1\3\7\21,1\3\7\22,1\3\7\23
REM DIRNAME "folder01","folder02","folder03","folder04","folder05","folder06","folder07","folder08","folder09","folder10","folder11","folder12","folder13","folder14","folder15","folder16","folder17","folder18","folder19","folder20","folder21","folder22","folder23"
TITLE ""
FILE "LR_black_phrase_E_A08.mp3" MP3
  TRACK 01 AUDIO
    TITLE "0:"
    INDEX 01 00:00:00
  TRACK 02 AUDIO
    TITLE "16:cjc171_08631"
    INDEX 01 00:00:14
  TRACK 03 AUDIO
    TITLE "0:"
    INDEX 01 00:01:35
  TRACK 04 AUDIO
    TITLE "17:cjc171_08632"
    INDEX 01 00:01:65
  TRACK 05 AUDIO
    TITLE "0:"
    INDEX 01 00:04:02
  TRACK 06 AUDIO
    TITLE "18:cjc171_08633"
    INDEX 01 00:04:57
  TRACK 07 AUDIO
    TITLE "0:"
    INDEX 01 00:06:70
  TRACK 08 AUDIO
    TITLE "16:cjc171_08634"
    INDEX 01 00:08:00
  TRACK 09 AUDIO
    TITLE "0:"
    INDEX 01 00:09:07
  TRACK 10 AUDIO
    TITLE "17:cjc171_08635"
    INDEX 01 00:09:41
  TRACK 11 AUDIO
    TITLE "0:"
    INDEX 01 00:11:39
  TRACK 12 AUDIO
    TITLE "18:cjc171_08636"
    INDEX 01 00:12:19
  TRACK 13 AUDIO
    TITLE "0:"
    INDEX 01 00:14:22
  TRACK 14 AUDIO
    TITLE "16:cjc171_08637"
    INDEX 01 00:15:27
  TRACK 15 AUDIO
    TITLE "0:"
    INDEX 01 00:16:49
  TRACK 16 AUDIO
    TITLE "17:cjc171_08638"
    INDEX 01 00:17:03
  TRACK 17 AUDIO
    TITLE "0:"
    INDEX 01 00:19:21
  TRACK 18 AUDIO
    TITLE "18:cjc171_08639"
    INDEX 01 00:20:01
  TRACK 19 AUDIO
    TITLE "0:"
    INDEX 01 00:22:22
  TRACK 20 AUDIO
    TITLE "16:cjc171_08640"
    INDEX 01 00:23:21
  TRACK 21 AUDIO
    TITLE "0:"
    INDEX 01 00:24:32
  TRACK 22 AUDIO
    TITLE "17:cjc171_08641"
    INDEX 01 00:24:52
  TRACK 23 AUDIO
    TITLE "0:"
    INDEX 01 00:27:15
  TRACK 24 AUDIO
    TITLE "18:cjc171_08642"
    INDEX 01 00:27:62
  TRACK 25 AUDIO
    TITLE "0:"
    INDEX 01 00:30:23
  TRACK 26 AUDIO
    TITLE "16:cjc171_08643"
    INDEX 01 00:31:19
  TRACK 27 AUDIO
    TITLE "0:"
    INDEX 01 00:32:38
  TRACK 28 AUDIO
    TITLE "17:cjc171_08644"
    INDEX 01 00:32:57
  TRACK 29 AUDIO
    TITLE "0:"
    INDEX 01 00:35:03
  TRACK 30 AUDIO
    TITLE "18:cjc171_08645"
    INDEX 01 00:35:48
  TRACK 31 AUDIO
    TITLE "0:"
    INDEX 01 00:37:68
  TRACK 32 AUDIO
    TITLE "16:cjc171_08646"
    INDEX 01 00:38:62
  TRACK 33 AUDIO
    TITLE "0:"
    INDEX 01 00:40:04
  TRACK 34 AUDIO
    TITLE "17:cjc171_08647"
    INDEX 01 00:40:25
  TRACK 35 AUDIO
    TITLE "0:"
    INDEX 01 00:42:30
  TRACK 36 AUDIO
    TITLE "18:cjc171_08648"
    INDEX 01 00:42:73
  TRACK 37 AUDIO
    TITLE "0:"
    INDEX 01 00:45:05
  TRACK 38 AUDIO
    TITLE "16:cjc171_08649"
    INDEX 01 00:46:01
  TRACK 39 AUDIO
    TITLE "0:"
    INDEX 01 00:47:31
  TRACK 40 AUDIO
    TITLE "17:cjc171_08650"
    INDEX 01 00:47:59
  TRACK 41 AUDIO
    TITLE "0:"
    INDEX 01 00:50:26
  TRACK 42 AUDIO
    TITLE "18:cjc171_08651"
    INDEX 01 00:51:10
  TRACK 43 AUDIO
    TITLE "0:"
    INDEX 01 00:53:48
  TRACK 44 AUDIO
    TITLE "16:cjc171_08652"
    INDEX 01 00:54:57
  TRACK 45 AUDIO
    TITLE "0:"
    INDEX 01 00:56:07
  TRACK 46 AUDIO
    TITLE "17:cjc171_08653"
    INDEX 01 00:56:38
  TRACK 47 AUDIO
    TITLE "0:"
    INDEX 01 00:58:70
  TRACK 48 AUDIO
    TITLE "18:cjc171_08654"
    INDEX 01 00:59:52
  TRACK 49 AUDIO
    TITLE "0:"
    INDEX 01 01:02:11
  TRACK 50 AUDIO
    TITLE "16:cjc171_08655"
    INDEX 01 01:03:17
  TRACK 51 AUDIO
    TITLE "0:"
    INDEX 01 01:04:32
  TRACK 52 AUDIO
    TITLE "17:cjc171_08656"
    INDEX 01 01:04:53
  TRACK 53 AUDIO
    TITLE "0:"
    INDEX 01 01:06:43
  TRACK 54 AUDIO
    TITLE "18:cjc171_08657"
    INDEX 01 01:07:13
  TRACK 55 AUDIO
    TITLE "0:"
    INDEX 01 01:09:00
  TRACK 56 AUDIO
    TITLE "16:cjc171_08658"
    INDEX 01 01:10:03
  TRACK 57 AUDIO
    TITLE "0:"
    INDEX 01 01:11:20
  TRACK 58 AUDIO
    TITLE "17:cjc171_08659"
    INDEX 01 01:11:40
  TRACK 59 AUDIO
    TITLE "0:"
    INDEX 01 01:13:43
  TRACK 60 AUDIO
    TITLE "18:cjc171_08660"
    INDEX 01 01:14:15
  TRACK 61 AUDIO
    TITLE "0:"
    INDEX 01 01:16:19
  TRACK 62 AUDIO
    TITLE "16:cjc171_08661"
    INDEX 01 01:17:15
  TRACK 63 AUDIO
    TITLE "0:"
    INDEX 01 01:18:32
  TRACK 64 AUDIO
    TITLE "17:cjc171_08662"
    INDEX 01 01:18:52
  TRACK 65 AUDIO
    TITLE "0:"
    INDEX 01 01:21:03
  TRACK 66 AUDIO
    TITLE "18:cjc171_08663"
    INDEX 01 01:21:52
  TRACK 67 AUDIO
    TITLE "0:"
    INDEX 01 01:24:01
  TRACK 68 AUDIO
    TITLE "16:cjc171_08664"
    INDEX 01 01:24:72
  TRACK 69 AUDIO
    TITLE "0:"
    INDEX 01 01:25:69
  TRACK 70 AUDIO
    TITLE "17:cjc171_08665"
    INDEX 01 01:26:30
  TRACK 71 AUDIO
    TITLE "0:"
    INDEX 01 01:29:24
  TRACK 72 AUDIO
    TITLE "18:cjc171_08666"
    INDEX 01 01:29:73
  TRACK 73 AUDIO
    TITLE "0:"
    INDEX 01 01:32:69
  TRACK 74 AUDIO
    TITLE "16:cjc171_08667"
    INDEX 01 01:33:69
  TRACK 75 AUDIO
    TITLE "0:"
    INDEX 01 01:35:05
  TRACK 76 AUDIO
    TITLE "17:cjc171_08668"
    INDEX 01 01:35:36
  TRACK 77 AUDIO
    TITLE "0:"
    INDEX 01 01:37:27
  TRACK 78 AUDIO
    TITLE "18:cjc171_08669"
    INDEX 01 01:38:07
  TRACK 79 AUDIO
    TITLE "0:"
    INDEX 01 01:40:00
  TRACK 80 AUDIO
    TITLE "16:cjc171_08670"
    INDEX 01 01:41:06
  TRACK 81 AUDIO
    TITLE "0:"
    INDEX 01 01:42:21
  TRACK 82 AUDIO
    TITLE "17:cjc171_08671"
    INDEX 01 01:42:40
  TRACK 83 AUDIO
    TITLE "0:"
    INDEX 01 01:44:65
  TRACK 84 AUDIO
    TITLE "18:cjc171_08672"
    INDEX 01 01:45:37
  TRACK 85 AUDIO
    TITLE "0:"
    INDEX 01 01:47:61
  TRACK 86 AUDIO
    TITLE "16:cjc171_08673"
    INDEX 01 01:48:64
  TRACK 87 AUDIO
    TITLE "0:"
    INDEX 01 01:49:66
  TRACK 88 AUDIO
    TITLE "17:cjc171_08674"
    INDEX 01 01:50:20
  TRACK 89 AUDIO
    TITLE "0:"
    INDEX 01 01:51:51
  TRACK 90 AUDIO
    TITLE "18:cjc171_08675"
    INDEX 01 01:52:29
  TRACK 91 AUDIO
    TITLE "0:"
    INDEX 01 01:53:62
  TRACK 92 AUDIO
    TITLE "16:cjc171_08676"
    INDEX 01 01:54:63
  TRACK 93 AUDIO
    TITLE "0:"
    INDEX 01 01:56:09
  TRACK 94 AUDIO
    TITLE "17:cjc171_08677"
    INDEX 01 01:56:29
  TRACK 95 AUDIO
    TITLE "0:"
    INDEX 01 01:58:33
  TRACK 96 AUDIO
    TITLE "18:cjc171_08678"
    INDEX 01 01:59:07
  TRACK 97 AUDIO
    TITLE "0:"
    INDEX 01 02:01:12
  TRACK 98 AUDIO
    TITLE "16:cjc171_08679"
    INDEX 01 02:02:16
  TRACK 99 AUDIO
    TITLE "0:"
    INDEX 01 02:03:31
  TRACK 100 AUDIO
    TITLE "17:cjc171_08680"
    INDEX 01 02:03:52
  TRACK 101 AUDIO
    TITLE "0:"
    INDEX 01 02:05:39
  TRACK 102 AUDIO
    TITLE "18:cjc171_08681"
    INDEX 01 02:06:07
  TRACK 103 AUDIO
    TITLE "0:"
    INDEX 01 02:07:70
  TRACK 104 AUDIO
    TITLE "16:cjc171_08682"
    INDEX 01 02:08:63
  TRACK 105 AUDIO
    TITLE "0:"
    INDEX 01 02:09:72
  TRACK 106 AUDIO
    TITLE "17:cjc171_08683"
    INDEX 01 02:10:17
  TRACK 107 AUDIO
    TITLE "0:"
    INDEX 01 02:12:10
  TRACK 108 AUDIO
    TITLE "18:cjc171_08684"
    INDEX 01 02:12:59
  TRACK 109 AUDIO
    TITLE "0:"
    INDEX 01 02:14:52
  TRACK 110 AUDIO
    TITLE "16:cjc171_08685"
    INDEX 01 02:15:57
  TRACK 111 AUDIO
    TITLE "0:"
    INDEX 01 02:17:19
  TRACK 112 AUDIO
    TITLE "17:cjc171_08686"
    INDEX 01 02:17:48
  TRACK 113 AUDIO
    TITLE "0:"
    INDEX 01 02:21:03
  TRACK 114 AUDIO
    TITLE "18:cjc171_08687"
    INDEX 01 02:21:56
  TRACK 115 AUDIO
    TITLE "0:"
    INDEX 01 02:25:11
  TRACK 116 AUDIO
    TITLE "16:cjc171_08688"
    INDEX 01 02:26:14
  TRACK 117 AUDIO
    TITLE "0:"
    INDEX 01 02:27:17
  TRACK 118 AUDIO
    TITLE "17:cjc171_08689"
    INDEX 01 02:27:45
  TRACK 119 AUDIO
    TITLE "0:"
    INDEX 01 02:29:57
  TRACK 120 AUDIO
    TITLE "18:cjc171_08690"
    INDEX 01 02:30:37
  TRACK 121 AUDIO
    TITLE "0:"
    INDEX 01 02:32:50
  TRACK 122 AUDIO
    TITLE "16:cjc171_08691"
    INDEX 01 02:33:55
  TRACK 123 AUDIO
    TITLE "0:"
    INDEX 01 02:34:74
  TRACK 124 AUDIO
    TITLE "17:cjc171_08692"
    INDEX 01 02:35:27
  TRACK 125 AUDIO
    TITLE "0:"
    INDEX 01 02:37:57
  TRACK 126 AUDIO
    TITLE "18:cjc171_08693"
    INDEX 01 02:38:35
  TRACK 127 AUDIO
    TITLE "0:"
    INDEX 01 02:40:63
  TRACK 128 AUDIO
    TITLE "16:cjc171_08694"
    INDEX 01 02:41:65
  TRACK 129 AUDIO
    TITLE "0:"
    INDEX 01 02:43:03
  TRACK 130 AUDIO
    TITLE "17:cjc171_08695"
    INDEX 01 02:43:22
  TRACK 131 AUDIO
    TITLE "0:"
    INDEX 01 02:45:41
  TRACK 132 AUDIO
    TITLE "18:cjc171_08696"
    INDEX 01 02:46:09
  TRACK 133 AUDIO
    TITLE "0:"
    INDEX 01 02:48:27
  TRACK 134 AUDIO
    TITLE "16:cjc171_08697"
    INDEX 01 02:49:23
  TRACK 135 AUDIO
    TITLE "0:"
    INDEX 01 02:50:67
  TRACK 136 AUDIO
    TITLE "17:cjc171_08698"
    INDEX 01 02:51:12
  TRACK 137 AUDIO
    TITLE "0:"
    INDEX 01 02:53:60
  TRACK 138 AUDIO
    TITLE "18:cjc171_08699"
    INDEX 01 02:54:32
  TRACK 139 AUDIO
    TITLE "0:"
    INDEX 01 02:57:03
  TRACK 140 AUDIO
    TITLE "16:cjc171_08700"
    INDEX 01 02:57:71
  TRACK 141 AUDIO
    TITLE "0:"
    INDEX 01 02:59:04
  TRACK 142 AUDIO
    TITLE "17:cjc171_08701"
    INDEX 01 02:59:25
  TRACK 143 AUDIO
    TITLE "0:"
    INDEX 01 03:01:30
  TRACK 144 AUDIO
    TITLE "18:cjc171_08702"
    INDEX 01 03:02:02
  TRACK 145 AUDIO
    TITLE "0:"
    INDEX 01 03:04:09
  TRACK 146 AUDIO
    TITLE "16:cjc171_08703"
    INDEX 01 03:05:10
  TRACK 147 AUDIO
    TITLE "0:"
    INDEX 01 03:06:27
  TRACK 148 AUDIO
    TITLE "17:cjc171_08704"
    INDEX 01 03:06:57
  TRACK 149 AUDIO
    TITLE "0:"
    INDEX 01 03:09:16
  TRACK 150 AUDIO
    TITLE "18:cjc171_08705"
    INDEX 01 03:09:69
  TRACK 151 AUDIO
    TITLE "0:"
    INDEX 01 03:12:28
  TRACK 152 AUDIO
    TITLE "16:cjc171_08706"
    INDEX 01 03:13:31
  TRACK 153 AUDIO
    TITLE "0:"
    INDEX 01 03:14:33
  TRACK 154 AUDIO
    TITLE "17:cjc171_08707"
    INDEX 01 03:14:62
  TRACK 155 AUDIO
    TITLE "0:"
    INDEX 01 03:16:36
  TRACK 156 AUDIO
    TITLE "18:cjc171_08708"
    INDEX 01 03:17:11
  TRACK 157 AUDIO
    TITLE "0:"
    INDEX 01 03:18:60
  TRACK 158 AUDIO
    TITLE "16:cjc171_08709"
    INDEX 01 03:19:61
  TRACK 159 AUDIO
    TITLE "0:"
    INDEX 01 03:21:07
  TRACK 160 AUDIO
    TITLE "17:cjc171_08710"
    INDEX 01 03:21:37
  TRACK 161 AUDIO
    TITLE "0:"
    INDEX 01 03:24:21
  TRACK 162 AUDIO
    TITLE "18:cjc171_08711"
    INDEX 01 03:24:74
  TRACK 163 AUDIO
    TITLE "0:"
    INDEX 01 03:27:59
  TRACK 164 AUDIO
    TITLE "16:cjc171_08712"
    INDEX 01 03:28:58
  TRACK 165 AUDIO
    TITLE "0:"
    INDEX 01 03:29:64
  TRACK 166 AUDIO
    TITLE "17:cjc171_08713"
    INDEX 01 03:30:06
  TRACK 167 AUDIO
    TITLE "0:"
    INDEX 01 03:32:44
  TRACK 168 AUDIO
    TITLE "18:cjc171_08714"
    INDEX 01 03:33:14
  TRACK 169 AUDIO
    TITLE "0:"
    INDEX 01 03:35:52
  TRACK 170 AUDIO
    TITLE "16:cjc171_08715"
    INDEX 01 03:36:48
  TRACK 171 AUDIO
    TITLE "0:"
    INDEX 01 03:37:45
  TRACK 172 AUDIO
    TITLE "17:cjc171_08716"
    INDEX 01 03:37:65
  TRACK 173 AUDIO
    TITLE "0:"
    INDEX 01 03:40:05
  TRACK 174 AUDIO
    TITLE "18:cjc171_08717"
    INDEX 01 03:40:50
  TRACK 175 AUDIO
    TITLE "0:"
    INDEX 01 03:42:64
  TRACK 176 AUDIO
    TITLE "16:cjc171_08718"
    INDEX 01 03:43:60
  TRACK 177 AUDIO
    TITLE "0:"
    INDEX 01 03:45:06
  TRACK 178 AUDIO
    TITLE "17:cjc171_08719"
    INDEX 01 03:45:27
  TRACK 179 AUDIO
    TITLE "0:"
    INDEX 01 03:47:03
  TRACK 180 AUDIO
    TITLE "18:cjc171_08720"
    INDEX 01 03:47:44
  TRACK 181 AUDIO
    TITLE "0:"
    INDEX 01 03:49:19
